<?xml version="1.0" encoding="UTF-8"?>
<svg width="69.275" height="52.448" version="1.1" viewBox="0 0 18.238 13.439" xmlns="http://www.w3.org/2000/svg" xmlns:cc="http://creativecommons.org/ns#" xmlns:dc="http://purl.org/dc/elements/1.1/" xmlns:rdf="http://www.w3.org/1999/02/22-rdf-syntax-ns#">
 <metadata>
  <rdf:RDF>
   <cc:Work rdf:about="">
    <dc:format>image/svg+xml</dc:format>
    <dc:type rdf:resource="http://purl.org/dc/dcmitype/StillImage"/>
    <dc:title/>
   </cc:Work>
  </rdf:RDF>
 </metadata>
 <path d="m7.5596-0.054327v4.8e-5c-0.13356 0.0028772-0.25683 0.078933-0.32428 0.20127l-7.0427 12.773c-0.14798 0.26851 0.03704 0.60411 0.3331 0.60417h8.3775c0.19958-0.59548 0.56357-1.1049 1.1314-1.4144 0.51817-0.28236 1.3998-0.71822 1.9028-1.0265 0.25156-0.15417 0.47825-0.3602 0.6148-0.62176 0.06829-0.13078 0.11316-0.2744 0.12534-0.42141 0.01217-0.14703-0.0086-0.2974-0.06647-0.43319-0.087273-0.20549-0.25228-0.3675-0.42447-0.50958-0.1722-0.14209-0.54481-0.41893-0.69264-0.58623-0.23824-0.26961-0.36705-0.57962-0.35172-0.93908-0.01832-0.32054 0.33582-0.88952 0.42691-1.0671-0.057833-0.032801-3.6676-6.3581-3.6676-6.3581-0.065506-0.11877-0.18421-0.19448-0.31505-0.20091-0.00863-4.507e-4 -0.017935-6.2338e-4 -0.026854-4.507e-4zm5.4647 4.3548c-0.09073 0.00192-0.17454 0.053709-0.22036 0.13675-0.38479 0.73745-0.73518 1.3861-1.1369 2.0647-0.1515 0.36908-0.32257 0.74186-0.31966 1.0975 0.03788 0.52003 0.23666 0.69744 0.5117 0.93391 0.18352 0.15782 0.58923 0.41653 0.79414 0.54537 0.20492 0.12883 0.3235 0.28299 0.43895 0.49573 0.13313 0.24534 0.13875 0.64098 0.0541 0.90702-0.08459 0.266-0.27938 0.59307-0.47551 0.7917-0.39223 0.39726-1.0209 0.68401-1.3886 1.104-0.3409 0.38938-0.51837 0.73406-0.53249 1.1473h7.0646c0.20111-4.7e-5 0.32679-0.22802 0.22626-0.41041l-4.784-8.6768c-0.04451-0.080659-0.12515-0.13212-0.21403-0.13649-0.0058-2.686e-4 -0.01217-4.508e-4 -0.01822-2.686e-4z" color="#000000" color-rendering="auto" dominant-baseline="auto" image-rendering="auto" shape-rendering="auto" solid-color="#000000" stroke-width=".089055" style="font-feature-settings:normal;font-variant-alternates:normal;font-variant-caps:normal;font-variant-ligatures:normal;font-variant-numeric:normal;font-variant-position:normal;isolation:auto;mix-blend-mode:normal;shape-padding:0;text-decoration-color:#000000;text-decoration-line:none;text-decoration-style:solid;text-indent:0;text-orientation:mixed;text-transform:none;white-space:normal"/>
</svg>
